<svg width="31" height="31" viewBox="0 0 31 31" fill="none" xmlns="http://www.w3.org/2000/svg">
<path fill-rule="evenodd" clip-rule="evenodd" d="M14.0416 22.7917H16.9583V14.0417H14.0416V22.7917ZM15.5 0.916672C7.44996 0.916672 0.916626 7.45 0.916626 15.5C0.916626 23.55 7.44996 30.0833 15.5 30.0833C23.55 30.0833 30.0833 23.55 30.0833 15.5C30.0833 7.45 23.55 0.916672 15.5 0.916672ZM15.5 27.1667C9.06871 27.1667 3.83329 21.9313 3.83329 15.5C3.83329 9.06876 9.06871 3.83334 15.5 3.83334C21.9312 3.83334 27.1666 9.06876 27.1666 15.5C27.1666 21.9313 21.9312 27.1667 15.5 27.1667ZM14.0416 11.125H16.9583V8.20834H14.0416V11.125Z" fill="#00293A"/>
</svg>
